<mxfile host="65bd71144e">
    <diagram id="GD1xHn1vDuPNecgHog4a" name="Page-1">
        <mxGraphModel dx="2162" dy="967" grid="1" gridSize="10" guides="1" tooltips="1" connect="1" arrows="1" fold="1" page="1" pageScale="1" pageWidth="850" pageHeight="1100" math="0" shadow="0">
            <root>
                <mxCell id="0"/>
                <mxCell id="1" parent="0"/>
                <mxCell id="87" value="" style="group" vertex="1" connectable="0" parent="1">
                    <mxGeometry x="70" y="30" width="730" height="1050" as="geometry"/>
                </mxCell>
                <mxCell id="88" value="user" style="swimlane;whiteSpace=wrap" vertex="1" parent="87">
                    <mxGeometry width="364.67" height="820" as="geometry"/>
                </mxCell>
                <mxCell id="89" value="provide user details" style="rounded=0;whiteSpace=wrap;html=1;" vertex="1" parent="88">
                    <mxGeometry x="59.25958965209633" y="286.09201773835923" width="221.40945584299732" height="56.65188470066519" as="geometry"/>
                </mxCell>
                <mxCell id="104" value="" style="ellipse;html=1;shape=endState;fillColor=#000000;strokeColor=#ff0000;" vertex="1" parent="88">
                    <mxGeometry x="190.00379125780546" y="730.0007317073173" width="39.072256913470106" height="38.41463414634147" as="geometry"/>
                </mxCell>
                <mxCell id="90" value="system" style="swimlane;whiteSpace=wrap" vertex="1" parent="87">
                    <mxGeometry x="365.33" width="364.67" height="820" as="geometry"/>
                </mxCell>
                <mxCell id="91" style="edgeStyle=orthogonalEdgeStyle;rounded=0;orthogonalLoop=1;jettySize=auto;html=1;entryX=0.5;entryY=0;entryDx=0;entryDy=0;" edge="1" parent="90" source="92" target="93">
                    <mxGeometry relative="1" as="geometry"/>
                </mxCell>
                <mxCell id="92" value="" style="ellipse;shape=startState;fillColor=#000000;strokeColor=#ff0000;" vertex="1" parent="90">
                    <mxGeometry x="150.42818911685993" y="59.484478935698455" width="39.072256913470106" height="42.488913525498894" as="geometry"/>
                </mxCell>
                <mxCell id="93" value="Display user register page" style="rounded=0;whiteSpace=wrap;html=1;" vertex="1" parent="90">
                    <mxGeometry x="59.25958965209633" y="140.85210643015523" width="221.40945584299732" height="56.65188470066519" as="geometry"/>
                </mxCell>
                <mxCell id="94" style="edgeStyle=orthogonalEdgeStyle;rounded=0;orthogonalLoop=1;jettySize=auto;html=1;exitX=1;exitY=0.5;exitDx=0;exitDy=0;" edge="1" parent="90" source="96" target="98">
                    <mxGeometry relative="1" as="geometry">
                        <Array as="points">
                            <mxPoint x="307.3684210526315" y="377.7439024390244"/>
                            <mxPoint x="307.3684210526315" y="627.439024390244"/>
                            <mxPoint x="221.40945584299732" y="627.439024390244"/>
                        </Array>
                    </mxGeometry>
                </mxCell>
                <mxCell id="95" style="edgeStyle=orthogonalEdgeStyle;rounded=0;orthogonalLoop=1;jettySize=auto;html=1;exitX=0.5;exitY=1;exitDx=0;exitDy=0;entryX=0.5;entryY=0;entryDx=0;entryDy=0;" edge="1" parent="90" source="96" target="100">
                    <mxGeometry relative="1" as="geometry"/>
                </mxCell>
                <mxCell id="96" value="check validity" style="rhombus;whiteSpace=wrap;html=1;" vertex="1" parent="90">
                    <mxGeometry x="98.33184656556645" y="300.2549889135255" width="182.33719892952718" height="155.79268292682926" as="geometry"/>
                </mxCell>
                <mxCell id="98" value="redirect to login" style="rounded=0;whiteSpace=wrap;html=1;" vertex="1" parent="90">
                    <mxGeometry x="110.70472792149866" y="717.0751108647452" width="221.40945584299732" height="56.65188470066519" as="geometry"/>
                </mxCell>
                <mxCell id="99" value="yes" style="text;html=1;align=center;verticalAlign=middle;resizable=0;points=[];autosize=1;" vertex="1" parent="90">
                    <mxGeometry x="293.0419268510258" y="413.5587583148559" width="30" height="20" as="geometry"/>
                </mxCell>
                <mxCell id="100" value="display error" style="rounded=0;whiteSpace=wrap;html=1;" vertex="1" parent="90">
                    <mxGeometry x="38.42105263157894" y="509.8669623059867" width="221.40945584299732" height="56.65188470066519" as="geometry"/>
                </mxCell>
                <mxCell id="101" value="no" style="text;html=1;align=center;verticalAlign=middle;resizable=0;points=[];autosize=1;" vertex="1" parent="90">
                    <mxGeometry x="169.964317573595" y="456.0476718403547" width="30" height="20" as="geometry"/>
                </mxCell>
                <mxCell id="105" style="edgeStyle=orthogonalEdgeStyle;rounded=0;orthogonalLoop=1;jettySize=auto;html=1;" edge="1" parent="87">
                    <mxGeometry relative="1" as="geometry">
                        <Array as="points">
                            <mxPoint x="535.9411239964317" y="229.440133037694"/>
                            <mxPoint x="169.964317573595" y="229.440133037694"/>
                        </Array>
                        <mxPoint x="535" y="200" as="sourcePoint"/>
                        <mxPoint x="170" y="280" as="targetPoint"/>
                    </mxGeometry>
                </mxCell>
                <mxCell id="106" style="edgeStyle=orthogonalEdgeStyle;rounded=0;orthogonalLoop=1;jettySize=auto;html=1;entryX=0;entryY=0.5;entryDx=0;entryDy=0;exitX=1.014;exitY=0.482;exitDx=0;exitDy=0;exitPerimeter=0;" edge="1" parent="87" source="89" target="96">
                    <mxGeometry relative="1" as="geometry">
                        <Array as="points">
                            <mxPoint x="284" y="314"/>
                            <mxPoint x="398" y="314"/>
                            <mxPoint x="398" y="378"/>
                        </Array>
                    </mxGeometry>
                </mxCell>
                <mxCell id="110" style="edgeStyle=none;html=1;entryX=0.486;entryY=1.046;entryDx=0;entryDy=0;entryPerimeter=0;exitX=-0.018;exitY=0.564;exitDx=0;exitDy=0;exitPerimeter=0;" edge="1" parent="87" source="100" target="89">
                    <mxGeometry relative="1" as="geometry">
                        <Array as="points">
                            <mxPoint x="167" y="542"/>
                        </Array>
                    </mxGeometry>
                </mxCell>
                <mxCell id="112" style="edgeStyle=none;html=1;entryX=1;entryY=0.5;entryDx=0;entryDy=0;" edge="1" parent="87" target="104">
                    <mxGeometry relative="1" as="geometry">
                        <mxPoint x="480" y="745" as="sourcePoint"/>
                    </mxGeometry>
                </mxCell>
            </root>
        </mxGraphModel>
    </diagram>
</mxfile>